<svg width="768" height="153" viewBox="0 0 768 153" fill="none" xmlns="http://www.w3.org/2000/svg">
<g id="main">
<g id="sona-letter">
<g id="s">
<path id="S" d="M36.7395 116.28C29.9128 116.28 24.7502 114.36 21.2515 110.52C17.7528 106.595 16.0035 101.005 16.0035 93.752V88.632H29.3155V94.776C29.3155 100.579 31.7475 103.48 36.6115 103.48C39.0008 103.48 40.7928 102.797 41.9875 101.432C43.2675 99.9813 43.9075 97.6773 43.9075 94.52C43.9075 90.7653 43.0542 87.48 41.3475 84.664C39.6408 81.7627 36.4835 78.3067 31.8755 74.296C26.0728 69.176 22.0195 64.568 19.7155 60.472C17.4115 56.2907 16.2595 51.5973 16.2595 46.392C16.2595 39.3093 18.0515 33.848 21.6355 30.008C25.2195 26.0827 30.4248 24.12 37.2515 24.12C43.9928 24.12 49.0702 26.0827 52.4835 30.008C55.9822 33.848 57.7315 39.3947 57.7315 46.648V50.36H44.4195V45.752C44.4195 42.68 43.8222 40.4613 42.6275 39.096C41.4328 37.6453 39.6835 36.92 37.3795 36.92C32.6862 36.92 30.3395 39.7787 30.3395 45.496C30.3395 48.7387 31.1928 51.768 32.8995 54.584C34.6915 57.4 37.8915 60.8133 42.4995 64.824C48.3875 69.944 52.4408 74.5947 54.6595 78.776C56.8782 82.9573 57.9875 87.864 57.9875 93.496C57.9875 100.835 56.1528 106.467 52.4835 110.392C48.8995 114.317 43.6515 116.28 36.7395 116.28Z" fill="#FFF500"/>
</g>
<g id="o">
<path id="O" d="M98.975 116.28C92.063 116.28 86.7723 114.317 83.103 110.392C79.4337 106.467 77.599 100.92 77.599 93.752V46.648C77.599 39.48 79.4337 33.9333 83.103 30.008C86.7723 26.0827 92.063 24.12 98.975 24.12C105.887 24.12 111.178 26.0827 114.847 30.008C118.516 33.9333 120.351 39.48 120.351 46.648V93.752C120.351 100.92 118.516 106.467 114.847 110.392C111.178 114.317 105.887 116.28 98.975 116.28ZM98.975 103.48C103.839 103.48 106.271 100.536 106.271 94.648V45.752C106.271 39.864 103.839 36.92 98.975 36.92C94.111 36.92 91.679 39.864 91.679 45.752V94.648C91.679 100.536 94.111 103.48 98.975 103.48Z" fill="#FFF500"/>
</g>
<g id="n">
<path id="N" d="M138.936 25.4H156.6L170.296 79.032H170.552V25.4H183.096V115H168.632L151.736 49.592H151.48V115H138.936V25.4Z" fill="#FFF500"/>
</g>
<g id="a">
<path id="A" d="M212.441 25.4H231.513L246.105 115H232.025L229.465 97.208V97.464H213.465L210.905 115H197.849L212.441 25.4ZM227.801 85.304L221.529 41.016H221.273L215.128 85.304H227.801Z" fill="#FFF500"/>
</g>
</g>
<g id="side-text">
<g id="college-ani">
<path id="COLLEGE OF" d="M283.408 63.48C280.88 63.48 278.944 62.76 277.6 61.32C276.288 59.88 275.632 57.848 275.632 55.224V37.176C275.632 34.552 276.288 32.52 277.6 31.08C278.944 29.64 280.88 28.92 283.408 28.92C285.936 28.92 287.856 29.64 289.168 31.08C290.512 32.52 291.184 34.552 291.184 37.176V40.728H286.192V36.84C286.192 34.76 285.312 33.72 283.552 33.72C281.792 33.72 280.912 34.76 280.912 36.84V55.608C280.912 57.656 281.792 58.68 283.552 58.68C285.312 58.68 286.192 57.656 286.192 55.608V50.472H291.184V55.224C291.184 57.848 290.512 59.88 289.168 61.32C287.856 62.76 285.936 63.48 283.408 63.48ZM307.589 63.48C304.997 63.48 303.013 62.744 301.637 61.272C300.261 59.8 299.573 57.72 299.573 55.032V37.368C299.573 34.68 300.261 32.6 301.637 31.128C303.013 29.656 304.997 28.92 307.589 28.92C310.181 28.92 312.165 29.656 313.541 31.128C314.917 32.6 315.605 34.68 315.605 37.368V55.032C315.605 57.72 314.917 59.8 313.541 61.272C312.165 62.744 310.181 63.48 307.589 63.48ZM307.589 58.68C309.413 58.68 310.325 57.576 310.325 55.368V37.032C310.325 34.824 309.413 33.72 307.589 33.72C305.765 33.72 304.853 34.824 304.853 37.032V55.368C304.853 57.576 305.765 58.68 307.589 58.68ZM324.696 29.4H329.976V58.2H338.664V63H324.696V29.4ZM346.715 29.4H351.995V58.2H360.683V63H346.715V29.4ZM368.736 29.4H383.136V34.2H374.016V43.08H381.264V47.88H374.016V58.2H383.136V63H368.736V29.4ZM399.181 63.48C396.621 63.48 394.669 62.76 393.325 61.32C391.981 59.848 391.309 57.752 391.309 55.032V37.368C391.309 34.648 391.981 32.568 393.325 31.128C394.669 29.656 396.621 28.92 399.181 28.92C401.741 28.92 403.693 29.656 405.037 31.128C406.381 32.568 407.053 34.648 407.053 37.368V40.248H402.061V37.032C402.061 34.824 401.149 33.72 399.325 33.72C397.501 33.72 396.589 34.824 396.589 37.032V55.416C396.589 57.592 397.501 58.68 399.325 58.68C401.149 58.68 402.061 57.592 402.061 55.416V48.84H399.421V44.04H407.053V55.032C407.053 57.752 406.381 59.848 405.037 61.32C403.693 62.76 401.741 63.48 399.181 63.48ZM415.963 29.4H430.363V34.2H421.243V43.08H428.491V47.88H421.243V58.2H430.363V63H415.963V29.4ZM459.76 63.48C457.168 63.48 455.184 62.744 453.808 61.272C452.432 59.8 451.744 57.72 451.744 55.032V37.368C451.744 34.68 452.432 32.6 453.808 31.128C455.184 29.656 457.168 28.92 459.76 28.92C462.352 28.92 464.336 29.656 465.712 31.128C467.088 32.6 467.776 34.68 467.776 37.368V55.032C467.776 57.72 467.088 59.8 465.712 61.272C464.336 62.744 462.352 63.48 459.76 63.48ZM459.76 58.68C461.584 58.68 462.496 57.576 462.496 55.368V37.032C462.496 34.824 461.584 33.72 459.76 33.72C457.936 33.72 457.024 34.824 457.024 37.032V55.368C457.024 57.576 457.936 58.68 459.76 58.68ZM476.867 29.4H490.835V34.2H482.147V43.56H488.963V48.36H482.147V63H476.867V29.4Z" fill="#FFF500"/>
</g>
<g id="tech-ani">
<path id="TECHNOLOGY" d="M280.096 93.2H274.576V88.4H290.896V93.2H285.376V122H280.096V93.2ZM298.972 88.4H313.372V93.2H304.252V102.08H311.5V106.88H304.252V117.2H313.372V122H298.972V88.4ZM329.37 122.48C326.842 122.48 324.906 121.76 323.562 120.32C322.25 118.88 321.594 116.848 321.594 114.224V96.176C321.594 93.552 322.25 91.52 323.562 90.08C324.906 88.64 326.842 87.92 329.37 87.92C331.898 87.92 333.818 88.64 335.13 90.08C336.474 91.52 337.146 93.552 337.146 96.176V99.728H332.154V95.84C332.154 93.76 331.274 92.72 329.514 92.72C327.754 92.72 326.874 93.76 326.874 95.84V114.608C326.874 116.656 327.754 117.68 329.514 117.68C331.274 117.68 332.154 116.656 332.154 114.608V109.472H337.146V114.224C337.146 116.848 336.474 118.88 335.13 120.32C333.818 121.76 331.898 122.48 329.37 122.48ZM345.825 88.4H351.105V102.08H356.769V88.4H362.049V122H356.769V106.88H351.105V122H345.825V88.4ZM371.501 88.4H378.125L383.261 108.512H383.357V88.4H388.061V122H382.637L376.301 97.472H376.205V122H371.501V88.4ZM405.137 122.48C402.545 122.48 400.561 121.744 399.185 120.272C397.809 118.8 397.121 116.72 397.121 114.032V96.368C397.121 93.68 397.809 91.6 399.185 90.128C400.561 88.656 402.545 87.92 405.137 87.92C407.729 87.92 409.713 88.656 411.089 90.128C412.465 91.6 413.153 93.68 413.153 96.368V114.032C413.153 116.72 412.465 118.8 411.089 120.272C409.713 121.744 407.729 122.48 405.137 122.48ZM405.137 117.68C406.961 117.68 407.873 116.576 407.873 114.368V96.032C407.873 93.824 406.961 92.72 405.137 92.72C403.313 92.72 402.401 93.824 402.401 96.032V114.368C402.401 116.576 403.313 117.68 405.137 117.68ZM422.244 88.4H427.524V117.2H436.212V122H422.244V88.4ZM451.709 122.48C449.117 122.48 447.133 121.744 445.757 120.272C444.381 118.8 443.693 116.72 443.693 114.032V96.368C443.693 93.68 444.381 91.6 445.757 90.128C447.133 88.656 449.117 87.92 451.709 87.92C454.301 87.92 456.285 88.656 457.661 90.128C459.037 91.6 459.725 93.68 459.725 96.368V114.032C459.725 116.72 459.037 118.8 457.661 120.272C456.285 121.744 454.301 122.48 451.709 122.48ZM451.709 117.68C453.533 117.68 454.445 116.576 454.445 114.368V96.032C454.445 93.824 453.533 92.72 451.709 92.72C449.885 92.72 448.973 93.824 448.973 96.032V114.368C448.973 116.576 449.885 117.68 451.709 117.68ZM476.304 122.48C473.744 122.48 471.792 121.76 470.448 120.32C469.104 118.848 468.432 116.752 468.432 114.032V96.368C468.432 93.648 469.104 91.568 470.448 90.128C471.792 88.656 473.744 87.92 476.304 87.92C478.864 87.92 480.816 88.656 482.16 90.128C483.504 91.568 484.176 93.648 484.176 96.368V99.248H479.184V96.032C479.184 93.824 478.272 92.72 476.448 92.72C474.624 92.72 473.712 93.824 473.712 96.032V114.416C473.712 116.592 474.624 117.68 476.448 117.68C478.272 117.68 479.184 116.592 479.184 114.416V107.84H476.544V103.04H484.176V114.032C484.176 116.752 483.504 118.848 482.16 120.32C480.816 121.76 478.864 122.48 476.304 122.48ZM497.23 107.696L490.846 88.4H496.462L500.062 100.736H500.158L503.758 88.4H508.894L502.51 107.696V122H497.23V107.696Z" fill="#FFF500"/>
</g>
</g>
<path id="Vector 1" d="M0 141H521" stroke="#D8D5D5" stroke-width="3"/>
</g>
</svg>
